<svg width="1038" height="18" viewBox="0 0 1038 18" fill="none" xmlns="http://www.w3.org/2000/svg">
<path d="M1.5 15.3801C4.93842 15.3801 8.37685 15.3801 20.4634 15.3801C32.55 15.3801 53.1805 15.3801 65.3366 15.573C77.4926 15.7658 80.549 16.1516 101.226 16.3503C121.903 16.549 160.107 16.549 181.126 16.3561C204.824 16.1387 211.012 15.3801 221.189 14.6087C237.969 13.3366 250.386 10.7048 254.623 10.5119C256.576 10.4231 258.097 9.93334 342.934 8.57749C427.772 7.22164 595.872 4.90734 683.998 3.52227C772.123 2.13719 775.18 1.75148 796.239 2.13135C817.298 2.51122 856.266 3.66837 881.117 4.07162C915.514 4.62979 927.651 3.30603 934.372 2.72161C945.256 1.77509 954.279 2.13719 966.348 1.55277C993.317 1.35407 1012.94 1.73979 1019.08 2.32421C1023.31 2.52291 1029.81 2.52291 1036.5 2.52291" stroke="black" stroke-width="3" stroke-linecap="round"/>
</svg>
