<svg width="142" height="130" viewBox="0 0 142 130" fill="none" xmlns="http://www.w3.org/2000/svg">
<path fill-rule="evenodd" clip-rule="evenodd" d="M0.5 0.5V10.4871H16.7598L28.3346 64.8613C31.548 76.6554 38.52 87.061 48.1792 94.4788C57.8384 101.897 69.6501 105.916 81.7992 105.919C93.0976 105.439 103.994 101.562 113.082 94.7872C122.17 88.0126 129.032 78.6518 132.783 67.9129C135.356 55.614 137.928 43.3151 140.5 31.0161H86.4842C93.9803 33.0643 100.466 37.9355 104.122 44.8871C106.519 49.4917 107.57 54.6861 107.154 59.8677C106.356 66.2496 103.401 72.1606 98.7832 76.6067C94.1657 81.0527 88.1682 83.7626 81.7992 84.2806C75.1824 84.4096 68.7435 82.1194 63.676 77.8344C58.6085 73.5495 55.2561 67.5604 54.2402 60.9774C53.3227 54.3238 54.9046 47.565 58.6765 42.0236C62.4484 36.4822 68.1387 32.557 74.6339 31.0161H31.0905L25.3031 0.5H0.5ZM60.0276 12.7065C59.9844 15.0663 60.4555 17.407 61.4078 19.5639C62.3601 21.7207 63.7703 23.6412 65.5394 25.1903C67.5237 26.8953 69.8899 28.0892 72.4344 28.6692C74.9789 29.2491 77.6253 29.1977 80.1457 28.5194C80.2003 26.0247 79.6756 23.5517 78.6133 21.2972C77.5509 19.0428 75.9804 17.0691 74.0266 15.5335C72.0729 13.9978 69.7899 12.9426 67.3595 12.4518C64.9292 11.961 62.4185 12.0482 60.0276 12.7065ZM49.0039 107.861C43.5158 108.251 39.2274 112.272 38.5315 117.016C37.6852 122.786 42.2542 128.858 49.0039 129.5C55.4252 129.041 60.051 123.378 59.4764 117.571C58.9743 112.497 54.5863 108.202 49.0039 107.861ZM118.177 107.861C112.374 107.882 107.643 112.533 107.429 118.126C107.204 124.018 112.059 129.191 118.177 129.223C120.991 129.223 123.69 128.097 125.68 126.094C127.67 124.091 128.787 121.375 128.787 118.542C128.787 115.709 127.67 112.993 125.68 110.99C123.69 108.987 120.991 107.861 118.177 107.861Z" fill="black" stroke="black"/>
</svg>
